<?xml version="1.0" encoding="UTF-8"?>
<svg width="52pt" height="52pt" version="1.1" viewBox="0 0 752 752" xmlns="http://www.w3.org/2000/svg">
 <g>
  <path d="m530.62 399.8c0-17.02-16.723-30.871-37.293-30.871-9.6211 0-18.352 3.0469-24.98 7.9922-9.1172-5.8008-19.922-9.1758-31.406-9.1758l-77.668-0.003906c0.62109-2.6055 0.94531-5.2695 0.94531-8.0195 0-6.9844-2.0703-13.645-5.8594-19.238 3.7891-5.5938 5.8594-12.254 5.8594-19.27 0-9.5898-3.9961-18.5-10.656-24.863 7.25-10.121 11.129-21.934 11.129-34.277 0-12.668-4.1133-24.449-11.188-34.305 1.5078-6.75 2.2773-14.031 2.2773-21.164 0-24.301-8.582-50.465-27.469-50.465-17.109 0-25.75 21.43-27.23 43.512-1.5703-0.089844-3.1094-0.17578-4.707-0.17578-1.5703 0-3.1094 0.089844-4.6758 0.17578-1.4805-22.082-10.121-43.512-27.23-43.512-18.883 0-27.469 26.164-27.469 50.465 0 7.1328 0.76953 14.414 2.2773 21.164-7.0742 9.8555-11.188 21.637-11.188 34.305 0 14.148 5.2695 27.793 14.738 38.746-4.293 5.832-6.6875 12.906-6.6875 20.395 0 7.0156 2.0703 13.676 5.8594 19.27-3.7891 5.5938-5.8594 12.254-5.8594 19.238 0 4.8828 1.0352 9.6484 2.9883 14.031-8.4062 6.3633-13.762 16.488-13.762 27.496 0 7.9023 2.6641 15.363 7.3984 21.34-4.7344 5.9492-7.3984 13.41-7.3984 21.34 0 12.461 6.8359 23.59 17.051 29.629 0.089844 23.234 7.1328 44.488 18.734 57.035v42.949c0 12.312 10.004 22.316 22.316 22.316h4.9141c12.312 0 22.316-10.004 22.316-22.316v-42.949c1.0938-1.1836 2.1328-2.457 3.1367-3.7891 1.0078 1.332 2.043 2.6055 3.1367 3.7891v42.949c0 12.312 10.004 22.316 22.316 22.316h4.9141c12.312 0 22.316-10.004 22.316-22.316v-42.949c5.8906-6.3633 10.656-15.035 13.91-25.219h0.91797c3.2266 10.062 7.9609 18.797 13.91 25.219v42.949c0 12.312 10.004 22.316 22.316 22.316h4.9141c12.312 0 22.316-10.004 22.316-22.316v-42.949c1.332-1.4219 2.5742-2.9883 3.7578-4.6172 1.2148 1.6289 2.457 3.1953 3.7578 4.6172v42.949c0 12.312 10.035 22.316 22.348 22.316h4.9141c12.285 0 22.316-10.004 22.316-22.316v-42.949c11.633-12.641 18.734-34.098 18.734-57.512 0-16.781-3.6094-32.352-9.8555-44.488 13.957-4.4961 23.844-15.684 23.844-28.793zm-206.3-222.14c2.6055 3.2578 6.75 13.289 6.75 28.949 0 1.332-0.058593 2.5742-0.11719 3.8164-4.1445-2.5742-8.6133-4.7656-13.32-6.4805 0.44531-14.121 4.2305-23.207 6.6875-26.285zm-63.844 0c2.457 3.0781 6.2461 12.164 6.6875 26.285-4.707 1.7148-9.1758 3.9062-13.32 6.4805-0.058594-1.2422-0.11719-2.4844-0.11719-3.8164 0.003907-15.66 4.1445-25.695 6.75-28.949zm29.098 340.74-3.582 3.1094v52.035c0 0.88672-0.71094 1.5977-1.5977 1.5977h-4.9141c-0.88672 0-1.5977-0.71094-1.5977-1.5977v-52.035l-3.6094-3.1094c-2.7539-2.3984-5.5039-6.1289-7.9023-10.98 6.8359 3.9648 14.594 6.0977 22.703 6.0977h4.8242c-1.3945 1.9805-2.8438 3.6094-4.3242 4.8828zm134.11 0-3.582 3.1094v52.035c0 0.88672-0.71094 1.5977-1.5977 1.5977l-4.9102-0.003906c-0.88672 0-1.5977-0.71094-1.5977-1.5977v-52.035l-3.6094-3.1094c-3.1094-2.7227-6.2461-7.1641-8.8516-13.023h33.031c-2.6055 5.8633-5.7422 10.305-8.8828 13.027zm57.098 0c-2.2773 1.9531-3.582 4.8242-3.582 7.8438v47.301c0 0.88672-0.71094 1.5977-1.5977 1.5977h-4.9141c-0.88672 0-1.6289-0.71094-1.6289-1.5977v-47.301c0-3.0195-1.3008-5.8906-3.582-7.8438-5.7109-4.9414-10.449-14.297-13.023-25.664-1.0664-4.7344-5.2695-8.082-10.094-8.082l-73.816 0.003906c-4.8555 0-9.0273 3.3438-10.094 8.082-2.5742 11.367-7.3125 20.719-13.023 25.664-2.2773 1.9531-3.6094 4.8242-3.6094 7.8438v47.301c0 0.88672-0.71094 1.5977-1.5977 1.5977h-4.9141c-0.88672 0-1.5977-0.71094-1.5977-1.5977v-47.301c0-3.0195-1.3008-5.8906-3.582-7.8438-4.4102-3.7891-8.3164-10.391-11.039-18.527-1.4219-4.2344-5.3555-7.0742-9.8281-7.0742h-20.188c-6.6602 0-12.906-2.6055-17.609-7.2812-4.707-4.707-7.2812-10.98-7.2812-17.609 0-5.3867-4.1445-9.8867-9.5-10.328-7.0742-0.59375-12.578-6.5703-12.578-13.645 0-5.1211 2.8125-9.7969 7.3711-12.164 3.4336-1.7773 5.5664-5.3281 5.5664-9.1758 0-3.8789-2.1328-7.3984-5.5664-9.207-4.5586-2.3672-7.3711-7.0156-7.3711-12.137 0-6.3945 4.5273-12.016 10.746-13.379 3.8164-0.85938 6.8359-3.7578 7.8125-7.5195 0.97656-3.7891-0.23828-7.7852-3.168-10.359-2.9883-2.6641-4.6172-6.3047-4.6172-10.27 0-4.3203 2.0117-8.3164 5.5039-10.953 2.6055-1.9531 4.1445-5.0312 4.1445-8.2891 0-3.2578-1.5391-6.3359-4.1445-8.2891-3.4922-2.6328-5.5039-6.6289-5.5039-10.98 0-4.707 2.3984-9.0273 6.3945-11.574 2.8125-1.7773 4.6172-4.8242 4.7969-8.1406 0.20703-3.3438-1.2148-6.5703-3.8164-8.6719-9.9453-8.0508-15.422-18.973-15.422-30.754 0-23.086 21.34-41.883 47.566-41.883 26.254 0 47.594 18.797 47.594 41.883 0 10.773-4.6758 21.016-13.172 28.859-2.6641 2.457-3.8477 6.1289-3.1367 9.707 0.73828 3.5508 3.2852 6.4531 6.6875 7.668 5.4766 1.9531 9.1445 7.1328 9.1445 12.906 0 4.3516-2.0117 8.3477-5.5039 10.98-2.6055 1.9531-4.1445 5.0312-4.1445 8.2891 0 3.2578 1.5391 6.3359 4.1445 8.2891 3.4922 2.6328 5.5039 6.6289 5.5039 10.953 0 4.0547-1.7773 7.875-4.8555 10.477-3.3164 2.8125-4.5273 7.3984-3.0469 11.484 1.5078 4.0859 5.3867 6.7773 9.7383 6.7773h95.605c18.203 0 33.832 12.992 37.117 30.902 0.53125 2.8398 2.2188 5.3281 4.6484 6.8672 8.2891 5.2695 17.227 22.168 17.227 46.855-0.007812 22.25-7.6172 38.797-15.164 45.309zm12.551-108.42h-0.26562c-1.9531-6.7773-5.0625-12.992-9.0859-18.469 2.5742-1.1562 5.7734-1.8633 9.3516-1.8633 9.7695 0 16.574 5.3555 16.574 10.152 0 4.8242-6.8086 10.18-16.574 10.18z"/>
  <path d="m279.09 247.87c0 4.9727-4.0273 8.9961-8.9961 8.9961-4.9727 0-8.9961-4.0273-8.9961-8.9961 0-4.9727 4.0273-8.9961 8.9961-8.9961 4.9727 0 8.9961 4.0234 8.9961 8.9961z"/>
  <path d="m323.58 247.87c0 4.9727-4.0547 8.9961-8.9961 8.9961-4.9727 0-8.9961-4.0273-8.9961-8.9961 0-4.9727 4.0273-8.9961 8.9961-8.9961 4.9414 0 8.9961 4.0234 8.9961 8.9961z"/>
  <path d="m280.69 271.12c0 3.1719 2.0078 5.8594 4.8086 6.9102-0.79688 3.2188-3.6875 5.625-7.1484 5.625-4.0859 0-7.3984 3.3125-7.3984 7.3984 0 4.0859 3.3125 7.3984 7.3984 7.3984 5.6523 0 10.797-2.1445 14.719-5.6328 3.9219 3.4922 9.0703 5.6328 14.719 5.6328 4.0859 0 7.3984-3.3125 7.3984-7.3984 0-4.0859-3.3125-7.3984-7.3984-7.3984-3.4492 0-6.3281-2.3867-7.1367-5.5859 2.8633-1.0195 4.9297-3.7305 4.9297-6.9453 0-4.0859-3.3125-7.3984-7.3984-7.3984l-10.09-0.007813c-4.0898 0-7.4023 3.3125-7.4023 7.4023z"/>
 </g>
</svg>
